<?xml version="1.0" encoding="utf-8"?>
<svg version="1.1" id="Layer_1" x="0px" y="0px" viewBox="0 0 455 455" style="enable-background:new 0 0 455 455;" xmlns="http://www.w3.org/2000/svg">
  <path d="M 219.557 -7.943 C 93.912 -7.943 -7.943 93.912 -7.943 219.557 C -7.943 345.202 93.912 447.057 219.557 447.057 C 345.202 447.057 447.057 345.202 447.057 219.557 C 447.057 93.912 345.202 -7.943 219.557 -7.943 Z M 219.557 319.205 L 91.468 191.533 L 112.646 170.285 L 219.557 276.848 L 326.468 170.285 L 347.646 191.533 L 219.557 319.205 Z" style="fill-rule: evenodd; fill: #716f6f;"/>
  <g/>
  <g/>
  <g/>
  <g/>
  <g/>
  <g/>
  <g/>
  <g/>
  <g/>
  <g/>
  <g/>
  <g/>
  <g/>
  <g/>
  <g/>
  <path style="stroke: #716f6f; fill: rgb(255, 255, 255);" d="M 115.736 166.796 L 91.908 191.191 L 220.125 320.542 L 347.774 191.758 L 325.081 166.228 C 325.545 164.474 211.3 268.19 219.558 272.319 L 115.736 166.796 Z"/>
</svg>