<svg width="800" height="600" xmlns="http://www.w3.org/2000/svg">
 <defs>
  <filter id="_blur">
   <feGaussianBlur in="SourceGraphic" stdDeviation="0.8"/>
  </filter>
 </defs>
 <g>
  <title>Layer 1</title>
  <g stroke="null" id="svg_1" filter="url(#_blur)">
   <g stroke="null" id="svg_2">
    <path stroke="null" id="svg_3" fill-rule="evenodd" clip-rule="evenodd" d="m430.43156,153.19551l38.13724,0c2.12931,0 3.8707,1.6033 3.8707,3.563l0,0c0,1.9597 -1.74139,3.56334 -3.8707,3.56334l-38.13724,0c-2.12894,0 -3.87107,-1.6033 -3.87107,-3.563l0,0c0,-1.96004 1.74213,-3.56334 3.87107,-3.56334l0,0zm0,28.483l38.13724,0c2.12931,0 3.8707,1.6033 3.8707,3.563l0,0c0,1.9597 -1.74139,3.563 -3.8707,3.563l-38.13724,0c-2.12894,0 -3.87107,-1.6033 -3.87107,-3.563l0,0c0,-1.9597 1.74213,-3.563 3.87107,-3.563l0,0zm0,-14.24133l38.13724,0c2.12931,0 3.8707,1.6033 3.8707,3.563l0,0c0,1.9597 -1.74139,3.56334 -3.8707,3.56334l-38.13724,0c-2.12894,0 -3.87107,-1.60364 -3.87107,-3.56334l0,0c0,-1.9597 1.74213,-3.563 3.87107,-3.563l0,0z" fill="none"/>
   </g>
  </g>
 </g>
</svg>